<svg width="48" height="48" viewBox="0 0 48 48" fill="none" xmlns="http://www.w3.org/2000/svg">
<rect width="48" height="48" rx="24" fill="#64646C"/>
<path d="M34.7887 32.9981C33.4587 34.982 32.0486 36.9179 29.9014 36.9499C27.7541 36.9979 27.0651 35.686 24.6294 35.686C22.1778 35.686 21.4246 36.9179 19.3895 36.9979C17.2904 37.0779 15.704 34.886 14.358 32.9501C11.6179 28.9984 9.51872 21.7189 12.339 16.8232C13.733 14.3914 16.2328 12.8555 18.9409 12.8075C20.992 12.7755 22.9469 14.1994 24.2128 14.1994C25.4627 14.1994 27.8342 12.4875 30.318 12.7435C31.3595 12.7915 34.2759 13.1595 36.1507 15.9113C36.0065 16.0073 32.6735 17.9591 32.7056 22.0069C32.7536 26.8385 36.9519 28.4544 37 28.4704C36.9519 28.5824 36.327 30.7743 34.7887 32.9981ZM25.639 7.39984C26.8087 6.07193 28.7476 5.064 30.35 5C30.5583 6.87188 29.8052 8.75975 28.6835 10.1037C27.5779 11.4636 25.7511 12.5195 23.9564 12.3755C23.7161 10.5356 24.6134 8.61576 25.639 7.39984Z" fill="white"/>
</svg>
