<svg width="48" height="48" viewBox="0 0 48 48" fill="none" xmlns="http://www.w3.org/2000/svg">
<rect width="48" height="48" rx="24" fill="#64646C"/>
<path d="M40 24.3636C40 23.2291 39.8961 22.1382 39.7032 21.0909H24.3265V27.2873H33.1132C32.7273 29.28 31.5696 30.9673 29.833 32.1018V36.1309H35.1317C38.2189 33.3382 40 29.2364 40 24.3636Z" fill="white"/>
<path d="M24.3265 40C28.7347 40 32.4304 38.5745 35.1317 36.1309L29.833 32.1018C28.3785 33.0618 26.5232 33.6436 24.3265 33.6436C20.0816 33.6436 16.475 30.8364 15.1837 27.0545H9.75139V31.1855C12.4378 36.4073 17.9443 40 24.3265 40Z" fill="white"/>
<path d="M15.1837 27.04C14.8571 26.08 14.6642 25.0618 14.6642 24C14.6642 22.9382 14.8571 21.92 15.1837 20.96V16.8291H9.75139C8.63822 18.9818 8 21.4109 8 24C8 26.5891 8.63822 29.0182 9.75139 31.1709L13.9814 27.9418L15.1837 27.04Z" fill="white"/>
<path d="M24.3265 14.3709C26.731 14.3709 28.8683 15.1855 30.5751 16.7564L35.2505 12.1745C32.4156 9.58545 28.7347 8 24.3265 8C17.9443 8 12.4378 11.5927 9.75139 16.8291L15.1837 20.96C16.475 17.1782 20.0816 14.3709 24.3265 14.3709Z" fill="white"/>
</svg>
