<svg width="48" height="48" viewBox="0 0 48 48" fill="none" xmlns="http://www.w3.org/2000/svg">
<rect width="48" height="48" rx="24" fill="#64646C"/>
<path d="M11.4164 27.3979C11.4164 22.0995 14.0356 16.5707 17.1103 16.5707C18.8185 16.5707 20.1851 17.6073 22.3488 20.7173C20.2989 23.9424 19.0463 25.9005 19.0463 25.9005C16.3132 30.2775 15.4021 31.199 13.9217 31.199C12.4413 31.3141 11.4164 29.9319 11.4164 27.3979ZM29.2954 25.4398L27.3594 22.2147C26.9039 21.4084 26.3345 20.6021 25.879 19.911C27.5872 17.2618 28.9537 15.8796 30.6619 15.8796C34.0783 15.8796 36.8114 21.0628 36.8114 27.5131C36.8114 29.9319 36.0142 31.3141 34.4199 31.3141C32.8256 31.3141 32.2562 30.2775 29.2954 25.4398ZM24.3986 17.6073C21.8932 14.267 19.7295 13 17.2242 13C11.9858 13 8 20.0262 8 27.3979C8 32.0052 10.1637 34.8848 13.8078 34.8848C16.427 34.8848 18.2491 33.6178 21.6655 27.6283C21.6655 27.6283 23.032 25.0942 24.0569 23.3665C24.3986 23.9424 24.7402 24.5183 25.0819 25.2094L26.6762 27.9738C29.7509 33.2723 31.4591 35 34.5338 35C38.0641 35 40 32.0052 40 27.2827C39.8861 19.4503 35.7865 13 30.8897 13C28.2705 13 26.2206 15.0733 24.3986 17.6073Z" fill="white"/>
</svg>
