<svg width="49" height="88" viewBox="0 0 49 88" fill="none" xmlns="http://www.w3.org/2000/svg">
<path fill-rule="evenodd" clip-rule="evenodd" d="M46.2 61.875C46.2 66.4242 42.4319 70.125 37.8 70.125H9.8C5.1681 70.125 1.4 66.4242 1.4 61.875V26.125C1.4 21.5758 5.1681 17.875 9.8 17.875H37.8C42.4319 17.875 46.2 21.5758 46.2 26.125V61.875ZM37.8 77V82.0889C37.8 84.8079 36.9194 85.0554 32.2231 85.8584C32.1244 85.8694 31.9984 85.8907 31.7821 85.9272C30.7538 86.0997 27.6241 86.625 23.8 86.625C21.9639 86.625 19.0589 86.4999 15.6464 85.9031C15.5498 85.8859 15.4791 85.8736 15.4203 85.8653C10.5791 84.9337 9.8 84.5948 9.8 82.0889V77C9.8 75.2854 9.6488 73.3336 8.80669 71.6946H38.8304C37.9435 73.4016 37.8 75.4064 37.8 77ZM9.8 11V5.91113C9.8 3.40519 10.5791 3.06625 15.4203 2.13468C15.4791 2.12643 15.5498 2.11406 15.6464 2.09688C19.0589 1.50013 21.9639 1.375 23.8 1.375C27.6241 1.375 30.7538 1.90025 31.7821 2.07281C31.9984 2.10925 32.1244 2.13057 32.2231 2.14157C36.9152 2.94319 37.8 3.18519 37.8 5.91113V11C37.8 12.5936 37.9435 14.5984 38.8304 16.3054H8.80669C9.6488 14.6664 9.8 12.7146 9.8 11ZM48.5051 37.125C48.7781 37.125 49 36.9071 49 36.6389V29.3611C49 29.0929 48.7781 28.875 48.5051 28.875H47.6V26.125C47.6 22.0089 44.9288 18.4848 41.209 17.116C39.7404 15.8421 39.2 13.7548 39.2 11V5.91113C39.2 1.92775 36.9551 1.55444 32.4051 0.776878C32.2077 0.776878 28.5481 0 23.8 0C19.0519 0 15.2936 0.776878 15.1949 0.776878C10.6449 1.65138 8.4 2.12232 8.4 5.91113V11C8.4 13.7438 7.9345 15.8235 6.4386 17.0988C2.6943 18.4553 0 21.9911 0 26.125V61.875C0 66.0089 2.6943 69.5447 6.4386 70.9012C7.9345 72.1765 8.4 74.2562 8.4 77V82.0889C8.4 85.8777 10.6449 86.3486 15.1949 87.2231C15.2936 87.2231 19.0519 88 23.8 88C28.5481 88 32.2077 87.2231 32.4051 87.2231C36.9551 86.4456 39.2 86.0723 39.2 82.0889V77C39.2 74.2452 39.7404 72.1579 41.209 70.884C44.9288 69.5152 47.6 65.9911 47.6 61.875V56.375H48.3C48.6864 56.375 49 56.067 49 55.6875V46.0625C49 45.683 48.6864 45.375 48.3 45.375H47.6V37.125H48.5051ZM44.1 61.875C44.1 65.2871 41.2741 68.0625 37.8 68.0625H9.8C6.3259 68.0625 3.5 65.2871 3.5 61.875V26.125C3.5 22.7129 6.3259 19.9375 9.8 19.9375H37.8C41.2741 19.9375 44.1 22.7129 44.1 26.125V61.875ZM37.8 19.25H9.8C5.9339 19.25 2.8 22.3279 2.8 26.125V61.875C2.8 65.6721 5.9339 68.75 9.8 68.75H37.8C41.6661 68.75 44.8 65.6721 44.8 61.875V26.125C44.8 22.3279 41.6661 19.25 37.8 19.25Z" fill="#64646C"/>
<path d="M11 43.5H17L21.3301 36L25.7513 52.5L28.1628 43.5H37" stroke="#64646C" stroke-width="2" stroke-linecap="round"/>
</svg>
